<?xml version="1.0" encoding="UTF-8" standalone="no"?>
<!DOCTYPE svg PUBLIC "-//W3C//DTD SVG 1.1//EN"
 "http://www.w3.org/Graphics/SVG/1.1/DTD/svg11.dtd">
<!-- Generated by graphviz version 2.40.1 (20161225.0304)
 -->
<!-- Title: dependency&#45;cruiser output Pages: 1 -->
<svg width="228pt" height="106pt"
 viewBox="0.00 0.00 228.00 106.00" xmlns="http://www.w3.org/2000/svg" xmlns:xlink="http://www.w3.org/1999/xlink">
<g id="graph0" class="graph" transform="scale(1 1) rotate(0) translate(4 102)">
<title>dependency&#45;cruiser output</title>
<polygon fill="#ffffff" stroke="transparent" points="-4,4 -4,-102 224,-102 224,4 -4,4"/>
<g id="clust1" class="cluster">
<title>cluster_src</title>
<path fill="#ffffff" stroke="#000000" stroke-width="2" d="M20,-8C20,-8 200,-8 200,-8 206,-8 212,-14 212,-20 212,-20 212,-78 212,-78 212,-84 206,-90 200,-90 200,-90 20,-90 20,-90 14,-90 8,-84 8,-78 8,-78 8,-20 8,-20 8,-14 14,-8 20,-8"/>
<text text-anchor="middle" x="110" y="-78.8" font-family="Helvetica,sans-Serif" font-weight="bold" font-size="9.00" fill="#000000">src</text>
</g>
<!-- src/board.js -->
<g id="node1" class="node">
<title>src/board.js</title>
<g id="a_node1"><a xlink:href="src/board.js" xlink:title="board.js">
<path fill="#ffffcc" stroke="#000000" d="M131,-34C131,-34 89,-34 89,-34 86,-34 83,-31 83,-28 83,-28 83,-22 83,-22 83,-19 86,-16 89,-16 89,-16 131,-16 131,-16 134,-16 137,-19 137,-22 137,-22 137,-28 137,-28 137,-31 134,-34 131,-34"/>
<text text-anchor="middle" x="110" y="-22.8" font-family="Helvetica,sans-Serif" font-size="9.00" fill="#000000">board.js</text>
</a>
</g>
</g>
<!-- src/main.js -->
<g id="node2" class="node">
<title>src/main.js</title>
<g id="a_node2"><a xlink:href="src/main.js" xlink:title="main.js">
<path fill="#ffffcc" stroke="#000000" d="M64,-49C64,-49 22,-49 22,-49 19,-49 16,-46 16,-43 16,-43 16,-37 16,-37 16,-34 19,-31 22,-31 22,-31 64,-31 64,-31 67,-31 70,-34 70,-37 70,-37 70,-43 70,-43 70,-46 67,-49 64,-49"/>
<text text-anchor="middle" x="43" y="-37.8" font-family="Helvetica,sans-Serif" font-size="9.00" fill="#000000">main.js</text>
</a>
</g>
</g>
<!-- src/main.js&#45;&gt;src/board.js -->
<g id="edge1" class="edge">
<title>src/main.js&#45;&gt;src/board.js</title>
<path fill="none" stroke="#000000" stroke-width="2" stroke-opacity="0.200000" d="M70.2515,-33.8989C72.4841,-33.3991 74.7551,-32.8907 77.0229,-32.3829"/>
<polygon fill="#000000" fill-opacity="0.200000" stroke="#000000" stroke-width="2" stroke-opacity="0.200000" points="77.5937,-34.4072 82.9899,-31.047 76.676,-30.3087 77.5937,-34.4072"/>
</g>
<!-- src/task.js -->
<g id="node3" class="node">
<title>src/task.js</title>
<g id="a_node3"><a xlink:href="src/task.js" xlink:title="task.js">
<path fill="#ffffcc" stroke="#000000" d="M131,-64C131,-64 89,-64 89,-64 86,-64 83,-61 83,-58 83,-58 83,-52 83,-52 83,-49 86,-46 89,-46 89,-46 131,-46 131,-46 134,-46 137,-49 137,-52 137,-52 137,-58 137,-58 137,-61 134,-64 131,-64"/>
<text text-anchor="middle" x="110" y="-52.8" font-family="Helvetica,sans-Serif" font-size="9.00" fill="#000000">task.js</text>
</a>
</g>
</g>
<!-- src/main.js&#45;&gt;src/task.js -->
<g id="edge2" class="edge">
<title>src/main.js&#45;&gt;src/task.js</title>
<path fill="none" stroke="#000000" stroke-width="2" stroke-opacity="0.200000" d="M70.2515,-46.1011C72.4841,-46.6009 74.7551,-47.1093 77.0229,-47.6171"/>
<polygon fill="#000000" fill-opacity="0.200000" stroke="#000000" stroke-width="2" stroke-opacity="0.200000" points="76.676,-49.6913 82.9899,-48.953 77.5937,-45.5928 76.676,-49.6913"/>
</g>
<!-- src/status.js -->
<g id="node4" class="node">
<title>src/status.js</title>
<g id="a_node4"><a xlink:href="src/status.js" xlink:title="status.js">
<path fill="#ffffcc" stroke="#000000" d="M198,-64C198,-64 156,-64 156,-64 153,-64 150,-61 150,-58 150,-58 150,-52 150,-52 150,-49 153,-46 156,-46 156,-46 198,-46 198,-46 201,-46 204,-49 204,-52 204,-52 204,-58 204,-58 204,-61 201,-64 198,-64"/>
<text text-anchor="middle" x="177" y="-52.8" font-family="Helvetica,sans-Serif" font-size="9.00" fill="#000000">status.js</text>
</a>
</g>
</g>
<!-- src/task.js&#45;&gt;src/status.js -->
<g id="edge3" class="edge">
<title>src/task.js&#45;&gt;src/status.js</title>
<path fill="none" stroke="#000000" stroke-width="2" stroke-opacity="0.200000" d="M137.2515,-55C139.3528,-55 141.488,-55 143.6227,-55"/>
<polygon fill="#000000" fill-opacity="0.200000" stroke="#000000" stroke-width="2" stroke-opacity="0.200000" points="143.9899,-57.1001 149.9899,-55 143.9899,-52.9001 143.9899,-57.1001"/>
</g>
</g>
</svg>
