<?xml version="1.0" encoding="UTF-8" standalone="no"?>
<!DOCTYPE svg PUBLIC "-//W3C//DTD SVG 1.1//EN"
 "http://www.w3.org/Graphics/SVG/1.1/DTD/svg11.dtd">
<!-- Generated by graphviz version 2.40.1 (20161225.0304)
 -->
<!-- Title: dependency&#45;cruiser output Pages: 1 -->
<svg width="397pt" height="110pt"
 viewBox="0.00 0.00 397.00 110.00" xmlns="http://www.w3.org/2000/svg" xmlns:xlink="http://www.w3.org/1999/xlink">
<g id="graph0" class="graph" transform="scale(1 1) rotate(0) translate(4 106)">
<title>dependency&#45;cruiser output</title>
<polygon fill="#ffffff" stroke="transparent" points="-4,4 -4,-106 393,-106 393,4 -4,4"/>
<g id="clust1" class="cluster">
<title>cluster_src</title>
<path fill="#ffffff" stroke="#000000" stroke-width="2" d="M20,-8C20,-8 369,-8 369,-8 375,-8 381,-14 381,-20 381,-20 381,-82 381,-82 381,-88 375,-94 369,-94 369,-94 20,-94 20,-94 14,-94 8,-88 8,-82 8,-82 8,-20 8,-20 8,-14 14,-8 20,-8"/>
<text text-anchor="middle" x="194.5" y="-82.8" font-family="Helvetica,sans-Serif" font-weight="bold" font-size="9.00" fill="#000000">src</text>
</g>
<g id="clust2" class="cluster">
<title>cluster_src/common</title>
<path fill="#ffffff" stroke="#000000" stroke-width="2" d="M286,-16C286,-16 361,-16 361,-16 367,-16 373,-22 373,-28 373,-28 373,-56 373,-56 373,-62 367,-68 361,-68 361,-68 286,-68 286,-68 280,-68 274,-62 274,-56 274,-56 274,-28 274,-28 274,-22 280,-16 286,-16"/>
<text text-anchor="middle" x="323.5" y="-56.8" font-family="Helvetica,sans-Serif" font-weight="bold" font-size="9.00" fill="#000000">common</text>
</g>
<g id="clust3" class="cluster">
<title>cluster_src/models</title>
<path fill="#ffffff" stroke="#000000" stroke-width="2" d="M90,-16C90,-16 254,-16 254,-16 260,-16 266,-22 266,-28 266,-28 266,-56 266,-56 266,-62 260,-68 254,-68 254,-68 90,-68 90,-68 84,-68 78,-62 78,-56 78,-56 78,-28 78,-28 78,-22 84,-16 90,-16"/>
<text text-anchor="middle" x="172" y="-56.8" font-family="Helvetica,sans-Serif" font-weight="bold" font-size="9.00" fill="#000000">models</text>
</g>
<!-- src/common/status.enum.js -->
<g id="node1" class="node">
<title>src/common/status.enum.js</title>
<g id="a_node1"><a xlink:href="src/common/status.enum.js" xlink:title="status.enum.js">
<path fill="#ffffcc" stroke="#000000" d="M359,-42C359,-42 288,-42 288,-42 285,-42 282,-39 282,-36 282,-36 282,-30 282,-30 282,-27 285,-24 288,-24 288,-24 359,-24 359,-24 362,-24 365,-27 365,-30 365,-30 365,-36 365,-36 365,-39 362,-42 359,-42"/>
<text text-anchor="middle" x="323.5" y="-30.8" font-family="Helvetica,sans-Serif" font-size="9.00" fill="#000000">status.enum.js</text>
</a>
</g>
</g>
<!-- src/main.js -->
<g id="node2" class="node">
<title>src/main.js</title>
<g id="a_node2"><a xlink:href="src/main.js" xlink:title="main.js">
<path fill="#ffffcc" stroke="#000000" d="M64,-53C64,-53 22,-53 22,-53 19,-53 16,-50 16,-47 16,-47 16,-41 16,-41 16,-38 19,-35 22,-35 22,-35 64,-35 64,-35 67,-35 70,-38 70,-41 70,-41 70,-47 70,-47 70,-50 67,-53 64,-53"/>
<text text-anchor="middle" x="43" y="-41.8" font-family="Helvetica,sans-Serif" font-size="9.00" fill="#000000">main.js</text>
</a>
</g>
</g>
<!-- src/models/board.model.js -->
<g id="node3" class="node">
<title>src/models/board.model.js</title>
<g id="a_node3"><a xlink:href="src/models/board.model.js" xlink:title="board.model.js">
<path fill="#ffffcc" stroke="#000000" d="M163,-42C163,-42 92,-42 92,-42 89,-42 86,-39 86,-36 86,-36 86,-30 86,-30 86,-27 89,-24 92,-24 92,-24 163,-24 163,-24 166,-24 169,-27 169,-30 169,-30 169,-36 169,-36 169,-39 166,-42 163,-42"/>
<text text-anchor="middle" x="127.5" y="-30.8" font-family="Helvetica,sans-Serif" font-size="9.00" fill="#000000">board.model.js</text>
</a>
</g>
</g>
<!-- src/main.js&#45;&gt;src/models/board.model.js -->
<g id="edge1" class="edge">
<title>src/main.js&#45;&gt;src/models/board.model.js</title>
<path fill="none" stroke="#000000" stroke-width="2" stroke-opacity="0.200000" d="M70.2015,-40.459C73.3375,-40.0507 76.6007,-39.6259 79.9083,-39.1954"/>
<polygon fill="#000000" fill-opacity="0.200000" stroke="#000000" stroke-width="2" stroke-opacity="0.200000" points="80.2134,-41.2735 85.8921,-38.4164 79.6712,-37.1086 80.2134,-41.2735"/>
</g>
<!-- src/models/task.model.js -->
<g id="node4" class="node">
<title>src/models/task.model.js</title>
<g id="a_node4"><a xlink:href="src/models/task.model.js" xlink:title="task.model.js">
<path fill="#ffffcc" stroke="#000000" d="M252,-42C252,-42 188,-42 188,-42 185,-42 182,-39 182,-36 182,-36 182,-30 182,-30 182,-27 185,-24 188,-24 188,-24 252,-24 252,-24 255,-24 258,-27 258,-30 258,-30 258,-36 258,-36 258,-39 255,-42 252,-42"/>
<text text-anchor="middle" x="220" y="-30.8" font-family="Helvetica,sans-Serif" font-size="9.00" fill="#000000">task.model.js</text>
</a>
</g>
</g>
<!-- src/main.js&#45;&gt;src/models/task.model.js -->
<g id="edge2" class="edge">
<title>src/main.js&#45;&gt;src/models/task.model.js</title>
<path fill="none" stroke="#000000" stroke-width="2" stroke-opacity="0.200000" d="M70.1884,-47.582C95.8102,-50.3167 135.2064,-52.8666 169,-48 175.5044,-47.0633 182.3359,-45.4873 188.8094,-43.7"/>
<polygon fill="#000000" fill-opacity="0.200000" stroke="#000000" stroke-width="2" stroke-opacity="0.200000" points="189.4561,-45.6991 194.6342,-42.0115 188.2867,-41.6651 189.4561,-45.6991"/>
</g>
<!-- src/models/board.model.js&#45;&gt;src/models/task.model.js -->
<g id="edge3" class="edge">
<title>src/models/board.model.js&#45;&gt;src/models/task.model.js</title>
<path fill="none" stroke="#000000" stroke-width="2" stroke-opacity="0.200000" d="M169.1498,-33C171.2598,-33 173.3826,-33 175.5005,-33"/>
<polygon fill="#000000" fill-opacity="0.200000" stroke="#000000" stroke-width="2" stroke-opacity="0.200000" points="175.8218,-35.1001 181.8218,-33 175.8218,-30.9001 175.8218,-35.1001"/>
</g>
<!-- src/models/task.model.js&#45;&gt;src/common/status.enum.js -->
<g id="edge4" class="edge">
<title>src/models/task.model.js&#45;&gt;src/common/status.enum.js</title>
<path fill="none" stroke="#000000" stroke-width="2" stroke-opacity="0.200000" d="M258.2455,-33C263.9122,-33 269.8112,-33 275.6438,-33"/>
<polygon fill="#000000" fill-opacity="0.200000" stroke="#000000" stroke-width="2" stroke-opacity="0.200000" points="275.9327,-35.1001 281.9326,-33 275.9326,-30.9001 275.9327,-35.1001"/>
</g>
</g>
</svg>
